<?xml version="1.0" encoding="UTF-8" standalone="no"?>
<!DOCTYPE svg PUBLIC "-//W3C//DTD SVG 1.1//EN"
 "http://www.w3.org/Graphics/SVG/1.1/DTD/svg11.dtd">
<!-- Generated by graphviz version 2.43.0 (0)
 -->
<!-- Title: dependency&#45;cruiser output Pages: 1 -->
<svg width="230pt" height="86pt"
 viewBox="0.00 0.00 230.00 86.00" xmlns="http://www.w3.org/2000/svg" xmlns:xlink="http://www.w3.org/1999/xlink">
<g id="graph0" class="graph" transform="scale(1 1) rotate(0) translate(4 82)">
<title>dependency&#45;cruiser output</title>
<polygon fill="white" stroke="transparent" points="-4,4 -4,-82 226,-82 226,4 -4,4"/>
<!-- .dependency&#45;cruiser.js -->
<g id="node1" class="node">
<title>.dependency&#45;cruiser.js</title>
<g id="a_node1"><a xlink:href=".dependency-cruiser.js" xlink:title=".dependency&#45;cruiser.js">
<path fill="#ccffcc" stroke="black" d="M113,-18C113,-18 6,-18 6,-18 3,-18 0,-15 0,-12 0,-12 0,-6 0,-6 0,-3 3,0 6,0 6,0 113,0 113,0 116,0 119,-3 119,-6 119,-6 119,-12 119,-12 119,-15 116,-18 113,-18"/>
<text text-anchor="middle" x="59.5" y="-6.8" font-family="Helvetica,sans-Serif" font-size="9.00">.dependency&#45;cruiser.js</text>
</a>
</g>
</g>
<!-- asd.repository.ts -->
<g id="node2" class="node">
<title>asd.repository.ts</title>
<g id="a_node2"><a xlink:href="asd.repository.ts" xlink:title="asd.repository.ts">
<path fill="#ddfeff" stroke="black" d="M216,-48C216,-48 138,-48 138,-48 135,-48 132,-45 132,-42 132,-42 132,-36 132,-36 132,-33 135,-30 138,-30 138,-30 216,-30 216,-30 219,-30 222,-33 222,-36 222,-36 222,-42 222,-42 222,-45 219,-48 216,-48"/>
<text text-anchor="middle" x="177" y="-36.8" font-family="Helvetica,sans-Serif" font-size="9.00">asd.repository.ts</text>
</a>
</g>
</g>
<!-- hello.controller.ts -->
<g id="node3" class="node">
<title>hello.controller.ts</title>
<g id="a_node3"><a xlink:href="hello.controller.ts" xlink:title="hello.controller.ts">
<path fill="#ddfeff" stroke="black" d="M100.5,-48C100.5,-48 18.5,-48 18.5,-48 15.5,-48 12.5,-45 12.5,-42 12.5,-42 12.5,-36 12.5,-36 12.5,-33 15.5,-30 18.5,-30 18.5,-30 100.5,-30 100.5,-30 103.5,-30 106.5,-33 106.5,-36 106.5,-36 106.5,-42 106.5,-42 106.5,-45 103.5,-48 100.5,-48"/>
<text text-anchor="middle" x="59.5" y="-36.8" font-family="Helvetica,sans-Serif" font-size="9.00">hello.controller.ts</text>
</a>
</g>
</g>
<!-- hello.controller.ts&#45;&gt;asd.repository.ts -->
<g id="edge1" class="edge">
<title>hello.controller.ts&#45;&gt;asd.repository.ts</title>
<g id="a_edge1"><a xlink:title="unnamed">
<path fill="none" stroke="orange" stroke-width="2" d="M106.81,-39C113.03,-39 119.42,-39 125.7,-39"/>
<polygon fill="orange" stroke="orange" stroke-width="2" points="125.93,-41.1 131.93,-39 125.93,-36.9 125.93,-41.1"/>
</a>
</g>
<text text-anchor="middle" x="97.2" y="-31.8" font-family="Helvetica,sans-Serif" font-size="9.00" fill="orange">unnamed</text>
</g>
<!-- index.ts -->
<g id="node4" class="node">
<title>index.ts</title>
<g id="a_node4"><a xlink:href="index.ts" xlink:title="no&#45;orphans">
<path fill="#ccffcc" stroke="orange" d="M80.5,-78C80.5,-78 38.5,-78 38.5,-78 35.5,-78 32.5,-75 32.5,-72 32.5,-72 32.5,-66 32.5,-66 32.5,-63 35.5,-60 38.5,-60 38.5,-60 80.5,-60 80.5,-60 83.5,-60 86.5,-63 86.5,-66 86.5,-66 86.5,-72 86.5,-72 86.5,-75 83.5,-78 80.5,-78"/>
<text text-anchor="middle" x="59.5" y="-66.8" font-family="Helvetica,sans-Serif" font-size="9.00" fill="orange">index.ts</text>
</a>
</g>
</g>
</g>
</svg>
